#File written by RizomUV 2023.0.71.gd738df3e. Compilation :Nov  3 2023,11:50:08
mtllib piso_esquina.mtl
#begin vertices
v 2.974637 -1e-06 -15.0943
v 2.974637 -1e-06 -21.00917
v -2.940237 -1e-06 -21.00917
v 2.55025 -1e-06 -15.0943
v -2.515849 -1e-06 -15.0943
v 2.55025 -1e-06 -21.00917
v -2.940237 -1e-06 -15.0943
v -2.618087 -1e-06 -15.0943
v -2.545794 -1e-06 -15.0943
v -2.515849 -1e-06 -21.00917
v -2.618087 -1e-06 -21.00917
v -2.545794 -1e-06 -21.00917
v 0.86155 -1e-06 -15.0943
v -0.82715 -1e-06 -15.0943
v -0.827149 -1e-06 -21.00917
v 0.86155 -1e-06 -21.00917
v 2.348887 -2e-06 -15.09431
v 2.348887 -0.122348 -21.00918
v -2.314486 -2e-06 -15.0943
v -2.314486 -0.122347 -21.00917
v -1.028513 -3e-06 -15.0943
v 1.062921 -0.122347 -21.00918
v 1.062921 -2e-06 -15.09431
v -1.028512 -0.122348 -21.00917
v 0.29865 -1e-06 -15.0943
v -0.26425 -1e-06 -15.0943
v -0.26425 -1e-06 -21.00917
v 0.29865 -1e-06 -21.00917
v 2.55025 -1e-06 -20.58478
v 2.974637 -1e-06 -20.58478
v -2.940237 -1e-06 -20.58478
v -2.515849 -1e-06 -20.58478
v -2.618087 -1e-06 -20.58478
v -2.545794 -1e-06 -20.58478
v 0.86155 -1e-06 -20.58478
v -0.827149 -1e-06 -20.58478
v 2.348887 -0.122348 -20.58479
v -2.314486 -0.122347 -20.58478
v 1.062921 -0.122347 -20.58479
v -1.028512 -0.122348 -20.58478
v 0.29865 -1e-06 -20.58478
v -0.26425 -1e-06 -20.58478
v 2.974624 -1e-06 -20.38342
v -2.94025 -0.122347 -20.38342
v -2.6181 -0.122347 -20.38342
v -2.545807 -0.122347 -20.38342
v 2.550237 -2e-06 -20.38342
v -2.515862 -0.122347 -20.38342
v 0.861537 -0.122347 -20.38342
v -0.827163 -0.122347 -20.38342
v 2.348874 -0.122348 -20.38343
v -2.314499 -0.122348 -20.38342
v 1.062908 -0.122348 -20.38343
v -1.028526 -0.122349 -20.38342
v 0.298637 -0.122347 -20.38342
v -0.264263 -0.122347 -20.38342
v 2.974624 -1e-06 -19.09745
v -2.6181 -0.122347 -19.09745
v -2.545807 -0.122347 -19.09745
v 2.550236 -1e-06 -19.09745
v -2.94025 -0.122347 -19.09745
v -2.515862 -0.122347 -19.09745
v 0.861537 -0.122347 -19.09745
v -0.827163 -0.122347 -19.09745
v 2.348874 -0.122347 -19.09747
v -2.314499 -0.122347 -19.09745
v 1.062908 -0.122347 -19.09747
v -1.028526 -0.122348 -19.09745
v 0.298637 -0.122347 -19.09745
v -0.264263 -0.122347 -19.09745
v 2.974637 -1e-06 -18.89608
v -2.940237 -1e-06 -18.89608
v -2.618087 -1e-06 -18.89608
v -2.545794 -1e-06 -18.89608
v 2.55025 -1e-06 -18.89608
v -2.515849 -1e-06 -18.89608
v 0.86155 -1e-06 -18.89608
v -0.827149 -1e-06 -18.89608
v 2.348887 -0.122348 -18.8961
v -2.314486 -0.122347 -18.89609
v 1.062921 -0.122347 -18.89609
v -1.028513 -0.122348 -18.89609
v 0.29865 -1e-06 -18.89608
v -0.26425 -1e-06 -18.89608
v 2.974637 -1e-06 -17.20738
v -2.940237 -1e-06 -17.20738
v -2.618087 -1e-06 -17.20738
v -2.545794 -1e-06 -17.20738
v 2.55025 -1e-06 -17.20738
v -2.515849 -1e-06 -17.20738
v 0.86155 -1e-06 -17.20738
v -0.827149 -1e-06 -17.20738
v 2.348887 -0.122348 -17.2074
v -2.314486 -0.122347 -17.20739
v 1.062921 -0.122347 -17.2074
v -1.028513 -0.122348 -17.20739
v 0.29865 -1e-06 -17.20738
v -0.26425 -1e-06 -17.20738
v 2.974614 -2e-06 -17.00603
v -2.94026 -0.122347 -17.00603
v -2.61811 -0.122347 -17.00603
v -2.545817 -0.122347 -17.00603
v 2.550227 -2e-06 -17.00603
v -2.515872 -0.122347 -17.00603
v 0.861527 -0.122347 -17.00603
v -0.827172 -0.122347 -17.00603
v 2.348864 -0.122348 -17.00604
v -2.314508 -0.122348 -17.00603
v 1.062898 -0.122348 -17.00604
v -1.028536 -0.122349 -17.00603
v 0.298627 -0.122347 -17.00603
v -0.264273 -0.122347 -17.00603
v 2.974633 -1e-06 -15.72005
v -2.940241 -0.122347 -15.72005
v -2.618091 -0.122347 -15.72005
v -2.545798 -0.122347 -15.72005
v 2.550246 -1e-06 -15.72005
v -2.515853 -0.122347 -15.72005
v 0.861546 -0.122347 -15.72005
v -0.827153 -0.122347 -15.72005
v 2.348883 -0.122347 -15.72006
v -2.314489 -0.122347 -15.72005
v 1.062917 -0.122347 -15.72006
v -1.028517 -0.122348 -15.72005
v 0.298646 -0.122347 -15.72005
v -0.264254 -0.122347 -15.72005
v 2.974637 -1e-06 -15.51868
v -2.618087 -1e-06 -15.51868
v -2.545794 -1e-06 -15.51868
v 2.55025 -1e-06 -15.51868
v -2.940237 -1e-06 -15.51868
v -2.515849 -1e-06 -15.51868
v 0.86155 -1e-06 -15.51868
v -0.827149 -1e-06 -15.51868
v 2.348887 -2e-06 -15.5187
v -2.314486 -2e-06 -15.51869
v 1.062921 -2e-06 -15.5187
v -1.028513 -3e-06 -15.51869
v 0.29865 -1e-06 -15.51868
v -0.26425 -1e-06 -15.51868
#end vertices

#begin 204 textures vertices 
vt 0.00390625 0.006189887 0
vt 0.9600151 0.00390625 0
vt 0.8211954 0.9938866 0
vt 0.004069281 0.07444733 0
vt 0.006026076 0.8937145 0
vt 0.9601782 0.0721637 0
vt 0.006189107 0.9619721 0
vt 0.006065351 0.9101583 0
vt 0.006037579 0.8985308 0
vt 0.9247681 0.9925644 0
vt 0.899646 0.9931554 0
vt 0.9174025 0.9927553 0
vt 0.004728628 0.3505015 0
vt 0.005377352 0.622108 0
vt 0.1585359 0.9422405 0
vt 0.4247296 0.9370893 0
vt 0.004157258 0.1112816 0
vt 0.8339038 0.825693 0
vt 0.005948721 0.8613277 0
vt 0.9815706 0.9894879 0
vt 0.005454707 0.6544948 0
vt 0.4614916 0.933456 0
vt 0.00465127 0.3181134 0
vt 0.3814558 0.8284118 0
vt 0.004944869 0.441037 0
vt 0.005161111 0.5315725 0
vt 0.2471939 0.9414242 0
vt 0.335388 0.9401847 0
vt 0.8919205 0.07232673 0
vt 0.8917575 0.004069281 0
vt 0.8203125 0.8906162 0
vt 0.9212722 0.891762 0
vt 0.8972465 0.8915282 0
vt 0.9142581 0.8917019 0
vt 0.4201522 0.8722493 0
vt 0.1600003 0.8766382 0
vt 0.8920085 0.109161 0
vt 0.9771798 0.8856638 0
vt 0.455957 0.8670837 0
vt 0.1243346 0.8728614 0
vt 0.3338828 0.8735624 0
vt 0.2465946 0.8751569 0
vt 0.8593707 0.004146636 0
vt 0.1248488 0.7461239 0
vt 0.9000255 0.8351006 0
vt 0.9179636 0.8359987 0
vt 0.8595338 0.07240408 0
vt 0.9254619 0.8364853 0
vt 0.4219609 0.8359318 0
vt 0.1569134 0.8407606 0
vt 0.8596217 0.1092384 0
vt 0.9747355 0.835988 0
vt 0.453968 0.8351756 0
vt 0.1250729 0.8409917 0
vt 0.3335858 0.8367945 0
vt 0.2457216 0.8381886 0
vt 0.6525388 0.004640648 0
vt 0.1669693 0.5735919 0
vt 0.1766539 0.5735336 0
vt 0.6527018 0.07289809 0
vt 0.4726563 0.8364499 0
vt 0.1806654 0.5735095 0
vt 0.6331134 0.5707891 0
vt 0.4068893 0.5721493 0
vt 0.6527898 0.1097324 0
vt 0.2076407 0.5733473 0
vt 0.6600898 0.5706285 0
vt 0.3799141 0.5723115 0
vt 0.5577054 0.5712425 0
vt 0.4822974 0.5716959 0
vt 0.620151 0.004718005 0
vt 0.5094904 0.8344585 0
vt 0.5106624 0.8845904 0
vt 0.5109361 0.8957813 0
vt 0.620314 0.07297545 0
vt 0.511051 0.900407 0
vt 0.6116567 0.5179839 0
vt 0.4193944 0.5196515 0
vt 0.620402 0.1098097 0
vt 0.5084891 0.9365708 0
vt 0.6382815 0.5192025 0
vt 0.3925195 0.5214288 0
vt 0.547283 0.5202206 0
vt 0.4831202 0.5208332 0
vt 0.3485443 0.00536673 0
vt 0.7729736 0.8346098 0
vt 0.7718433 0.8844529 0
vt 0.7715662 0.8956244 0
vt 0.3487074 0.07362417 0
vt 0.7714523 0.9002515 0
vt 0.6095469 0.3271942 0
vt 0.4172847 0.3288616 0
vt 0.3487954 0.1104584 0
vt 0.7739882 0.9369002 0
vt 0.6364225 0.3254185 0
vt 0.3906605 0.3276445 0
vt 0.5458211 0.3260124 0
vt 0.4816583 0.3266249 0
vt 0.3161583 0.005444083 0
vt 0.122127 0.2936763 0
vt 0.8080458 0.8870196 0
vt 0.8072127 0.8986706 0
vt 0.3163213 0.07370153 0
vt 0.8067825 0.9035365 0
vt 0.6121495 0.3007732 0
vt 0.4142509 0.302811 0
vt 0.3164093 0.1105358 0
vt 0.806386 0.9355076 0
vt 0.6358885 0.3016904 0
vt 0.390625 0.3040564 0
vt 0.5462922 0.2990045 0
vt 0.480682 0.2995313 0
vt 0.1093248 0.005938098 0
vt 0.1116076 0.9617203 0
vt 0.1642501 0.1211431 0
vt 0.1739347 0.1210848 0
vt 0.1094878 0.07419554 0
vt 0.1779462 0.1210607 0
vt 0.6303942 0.1183403 0
vt 0.4041703 0.1197005 0
vt 0.1095758 0.1110298 0
vt 0.2049216 0.1208987 0
vt 0.6573706 0.1181796 0
vt 0.3771949 0.1198628 0
vt 0.5549862 0.1187937 0
vt 0.4795782 0.1192471 0
vt 0.07216368 0.006026857 0
vt 0.07432278 0.9099952 0
vt 0.07429501 0.8983678 0
vt 0.07232671 0.0742843 0
vt 0.07444653 0.9618091 0
vt 0.0742835 0.8935515 0
vt 0.07298606 0.3503384 0
vt 0.07363478 0.6219449 0
vt 0.07241469 0.1111186 0
vt 0.07420615 0.8611647 0
vt 0.0729087 0.3179504 0
vt 0.07371213 0.6543318 0
vt 0.0732023 0.440874 0
vt 0.07341854 0.5314095 0
vt 0.6599293 0.5436522 0
vt 0.6383131 0.542792 0
vt 0.6585691 0.3174282 0
vt 0.6584038 0.2904535 0
vt 0.3930499 0.545158 0
vt 0.3783934 0.3191115 0
vt 0.4167878 0.5460733 0
vt 0.3797536 0.5453355 0
vt 0.3782281 0.2921368 0
vt 0.4052035 0.2919743 0
vt 0.4806114 0.2915209 0
vt 0.482645 0.5478421 0
vt 0.5482551 0.5473153 0
vt 0.6146862 0.544036 0
vt 0.5560195 0.2910675 0
vt 0.6314275 0.2906141 0
vt 0.8097639 0.8364313 0
vt 0.1238129 0.5738513 0
vt 0.1652833 0.2934168 0
vt 0.174968 0.2933586 0
vt 0.4761471 0.9354093 0
vt 0.4744666 0.8870956 0
vt 0.4752921 0.8987156 0
vt 0.2074802 0.5463714 0
vt 0.20612 0.3201473 0
vt 0.2059549 0.2931726 0
vt 0.1789795 0.2933345 0
vt 0.4757095 0.9035651 0
vt 0.8219328 0.8336295 0
vt 0.2091823 0.8294476 0
vt 0.2086765 0.7456199 0
vt 0.1776897 0.7458062 0
vt 0.2088404 0.7725951 0
vt 0.1817012 0.7457821 0
vt 0.1680051 0.7458644 0
vt 0.5587412 0.7435151 0
vt 0.6612895 0.7698762 0
vt 0.3809499 0.7445841 0
vt 0.6616313 0.8267288 0
vt 0.4833332 0.7439685 0
vt 0.1210938 0.9402243 0
vt 0.3811139 0.7715593 0
vt 0.4079252 0.7444219 0
vt 0.6341492 0.7430617 0
vt 0.6611256 0.7429009 0
vt 0.1113672 0.8610759 0
vt 0.1210938 0.1214026 0
vt 0.1114839 0.9099065 0
vt 0.833398 0.7418651 0
vt 0.1108732 0.6542431 0
vt 0.1114561 0.898279 0
vt 0.1114446 0.8934627 0
vt 0.8323622 0.5695927 0
vt 0.8335619 0.7688404 0
vt 0.9602661 0.108998 0
vt 0.8322017 0.5426166 0
vt 0.8308415 0.3163926 0
vt 0.8306763 0.289418 0
vt 0.829643 0.1171439 0
vt 0.1101471 0.3502497 0
vt 0.1100698 0.3178616 0
vt 0.1103634 0.4407852 0
vt 0.1105796 0.5313208 0
vt 0.1107959 0.6218562 0
#end 204 textures vertices 

#begin 13 normals 
vn 0.5192 0.8546 -0
vn -0 1 -0
vn 0.5193 0.8546 -0
vn -0.5193 0.8546 -0
vn 0.2791 0.9188 0.2791
vn -0 0.8546 0.5193
vn -0.2791 0.9188 0.2791
vn 0.2791 0.9188 -0.2791
vn -0 0.8546 -0.5192
vn -0.2791 0.9188 -0.2791
vn 0.2791 0.9188 0.2792
vn -0.5193 0.8546 -0.0001
vn -0 0.8546 -0.5193
#end 13 normals 

#begin 117 faces
o Plane:168
usemtl piso_esquina
s 0
f 35/35/1 39/39/1 22/22/1 16/16/1 
f 32/32/2 10/10/2 12/12/2 34/34/2 
f 129/129/2 128/128/2 8/8/2 9/9/2 
f 128/128/2 131/131/2 7/7/2 8/8/2 
f 29/29/2 30/30/2 2/2/2 6/6/2 
f 140/140/2 134/134/2 14/14/2 26/26/2 
f 138/138/2 136/136/2 19/19/2 21/21/2 
f 135/135/2 137/137/2 23/23/2 17/17/2 
f 134/134/2 138/138/2 21/21/2 14/14/2 
f 32/32/3 38/38/3 20/20/3 10/10/3 
f 130/130/2 135/135/2 17/17/2 4/4/2 
f 133/133/2 139/139/2 25/25/2 13/13/2 
f 139/139/2 140/140/2 26/26/2 25/25/2 
f 28/28/2 27/27/2 42/42/2 41/41/2 
f 16/16/2 28/28/2 41/41/2 35/35/2 
f 6/6/4 18/195/4 37/37/4 29/29/4 
f 48/48/5 52/52/5 38/38/5 32/32/5 
f 15/15/4 24/181/4 40/40/4 36/36/4 
f 18/18/2 22/179/2 39/177/2 37/194/2 
f 24/24/2 20/170/2 38/173/2 40/182/2 
f 27/27/2 15/15/2 36/36/2 42/42/2 
f 47/47/2 43/43/2 30/30/2 29/29/2 
f 11/11/2 3/3/2 31/31/2 33/33/2 
f 12/12/2 11/11/2 33/33/2 34/34/2 
f 48/48/6 32/32/6 34/34/6 46/46/6 
f 49/49/5 53/53/5 39/39/5 35/35/5 
f 63/63/2 67/67/2 53/185/2 49/184/2 
f 62/62/2 48/174/2 46/172/2 59/59/2 
f 60/60/2 57/57/2 43/43/2 47/47/2 
f 62/62/2 66/66/2 52/171/2 48/174/2 
f 41/41/6 42/42/6 56/56/6 55/55/6 
f 35/35/6 41/41/6 55/55/6 49/49/6 
f 29/29/4 37/37/4 51/51/4 47/47/4 
f 36/36/7 40/40/7 54/54/7 50/50/7 
f 37/194/2 39/177/2 53/185/2 51/189/2 
f 40/182/2 38/173/2 52/171/2 54/178/2 
f 42/42/6 36/36/6 50/50/6 56/56/6 
f 33/33/6 31/31/6 44/169/6 45/45/6 
f 34/34/6 33/33/6 45/45/6 46/46/6 
f 76/76/8 80/80/8 66/161/8 62/168/8 
f 75/75/2 71/71/2 57/57/2 60/60/2 
f 76/76/9 62/168/9 59/163/9 74/74/9 
f 77/77/8 81/81/8 67/142/8 63/154/8 
f 55/176/2 56/180/2 70/70/2 69/69/2 
f 49/184/2 55/176/2 69/69/2 63/63/2 
f 47/47/4 51/51/4 65/65/4 60/60/4 
f 50/183/2 54/178/2 68/68/2 64/64/2 
f 51/189/2 53/185/2 67/67/2 65/193/2 
f 54/178/2 52/171/2 66/66/2 68/68/2 
f 56/180/2 50/183/2 64/64/2 70/70/2 
f 45/175/2 44/44/2 61/158/2 58/58/2 
f 46/172/2 45/175/2 58/58/2 59/59/2 
f 91/91/1 95/95/1 81/81/1 77/77/1 
f 90/90/2 76/76/2 74/74/2 88/88/2 
f 89/89/2 85/85/2 71/71/2 75/75/2 
f 90/90/3 94/94/3 80/80/3 76/76/3 
f 69/153/9 70/152/9 84/84/9 83/83/9 
f 63/154/9 69/153/9 83/83/9 77/77/9 
f 60/60/4 65/65/4 79/79/4 75/75/4 
f 64/147/10 68/145/10 82/82/10 78/78/10 
f 65/193/2 67/67/2 81/141/2 79/196/2 
f 68/68/2 66/66/2 80/164/2 82/148/2 
f 70/152/9 64/147/9 78/78/9 84/84/9 
f 58/162/9 61/61/9 72/72/9 73/73/9 
f 59/163/9 58/162/9 73/73/9 74/74/9 
f 104/104/11 108/108/11 94/94/11 90/90/11 
f 103/103/2 99/99/2 85/85/2 89/89/2 
f 104/104/6 90/90/6 88/88/6 102/102/6 
f 105/105/11 109/109/11 95/95/11 91/91/11 
f 83/83/2 84/84/2 98/98/2 97/97/2 
f 77/77/2 83/83/2 97/97/2 91/91/2 
f 75/75/4 79/79/4 93/93/4 89/89/4 
f 78/78/4 82/82/4 96/96/4 92/92/4 
f 79/196/2 81/141/2 95/143/2 93/197/2 
f 82/148/2 80/164/2 94/165/2 96/146/2 
f 84/84/2 78/78/2 92/92/2 98/98/2 
f 73/73/2 72/72/2 86/86/2 87/87/2 
f 74/74/2 73/73/2 87/87/2 88/88/2 
f 119/119/2 123/123/2 109/144/2 105/156/2 
f 118/118/2 104/167/2 102/160/2 116/116/2 
f 117/117/2 113/113/2 99/99/2 103/103/2 
f 118/118/2 122/122/2 108/166/2 104/167/2 
f 97/97/6 98/98/6 112/112/6 111/111/6 
f 91/91/6 97/97/6 111/111/6 105/105/6 
f 89/89/12 93/93/12 107/107/12 103/103/12 
f 92/92/7 96/96/7 110/110/7 106/106/7 
f 93/197/2 95/143/2 109/144/2 107/198/2 
f 96/146/2 94/165/2 108/166/2 110/149/2 
f 98/98/6 92/92/6 106/106/6 112/112/6 
f 87/87/6 86/86/6 100/157/6 101/101/6 
f 88/88/6 87/87/6 101/101/6 102/102/6 
f 132/132/13 136/136/13 122/186/13 118/192/13 
f 130/130/2 127/127/2 113/113/2 117/117/2 
f 132/132/13 118/192/13 116/191/13 129/129/13 
f 133/133/13 137/137/13 123/201/13 119/200/13 
f 111/155/2 112/151/2 126/126/2 125/125/2 
f 105/156/2 111/155/2 125/125/2 119/119/2 
f 103/103/4 107/107/4 121/121/4 117/117/4 
f 106/150/2 110/149/2 124/124/2 120/120/2 
f 107/198/2 109/144/2 123/123/2 121/199/2 
f 110/149/2 108/166/2 122/122/2 124/124/2 
f 112/151/2 106/150/2 120/120/2 126/126/2 
f 101/159/2 100/100/2 114/187/2 115/115/2 
f 102/160/2 101/159/2 115/115/2 116/116/2 
f 13/13/2 23/23/2 137/137/2 133/133/2 
f 5/5/2 132/132/2 129/129/2 9/9/2 
f 4/4/2 1/1/2 127/127/2 130/130/2 
f 5/5/2 19/19/2 136/136/2 132/132/2 
f 125/202/13 126/203/13 140/140/13 139/139/13 
f 119/200/13 125/202/13 139/139/13 133/133/13 
f 117/117/10 121/121/10 135/135/10 130/130/10 
f 120/204/13 124/190/13 138/138/13 134/134/13 
f 121/121/13 123/201/13 137/137/13 135/135/13 
f 124/190/13 122/186/13 136/136/13 138/138/13 
f 126/203/13 120/204/13 134/134/13 140/140/13 
f 115/188/13 114/114/13 131/131/13 128/128/13 
f 116/191/13 115/188/13 128/128/13 129/129/13 
#end 117 faces

#ZOMPROPERTIES_04{
#ZOMPROPERTIES_04 table {Mesh table {SymPlane table {Point vector3d 0 0 0 Normal vector3d 1 0 0 Threshold double 0.01 
#ZOMPROPERTIES_04 Enabled bool false EdgeID int -1 SymEdgeID int -1 UPos double 0.5 LocalMode bool false } RootGroup C
#ZOMPROPERTIES_04 SubMeshGroup {Children table {Tile_0_0 CSubMeshGroup {Children table {} BBoxUV box3d 0 0 0 0 0 0 BBo
#ZOMPROPERTIES_04 x3D box3d 0 0 0 0 0 0 Area3D double 0 AreaUV double 0.71298 IsRoot bool false Properties table {Sele
#ZOMPROPERTIES_04 cted bool false Box box3d 0 1 0 1 0 1 U int 0 V int 0 NU int 0 NV int 0 Tiling vector3d 1 1 1 TileRa
#ZOMPROPERTIES_04 tioMode string "1:1" Overflow string "Off" Pack table {BoxFrameEdit bool false Behavior string "Free
#ZOMPROPERTIES_04 " } } IsTile bool true PolyIDs ints { 1 23 38 37 22 24 9 16 39 55 65 67 90 89 76 63 64 41 77 53 0 25
#ZOMPROPERTIES_04  31 30 36 33 17 20 13 14 42 52 68 83 82 88 85 72 59 62 56 57 69 75 70 2 3 115 116 93 91 113 111 114 
#ZOMPROPERTIES_04 108 109 94 112 110 92 106 10 80 66 84 71 58 45 32 15 4 21 28 40 54 97 7 104 11 12 5 8 6 107 105 18 3
#ZOMPROPERTIES_04 4 47 60 73 86 99 78 96 95 101 98 100 81 79 103 102 87 74 61 48 35 19 46 49 43 44 26 29 27 51 50 } } 
#ZOMPROPERTIES_04 } BBoxUV box3d 0 0 0 0 0 0 BBox3D box3d 0 0 0 0 0 0 Area3D double 0 AreaUV double 0.290441 IsRoot bo
#ZOMPROPERTIES_04 ol true Properties table {Selected bool false Box box3d 0 1 0 1 0 1 U int 0 V int 0 NU int 1 NV int 
#ZOMPROPERTIES_04 1 Tiling vector3d 1 1 1 TileRatioMode string "1:1" Overflow string "Off" Pack table {Rotate table {M
#ZOMPROPERTIES_04 ode int 0 Min double 0 Max double 90 Step double 0 } PaddingSize double 0.0078125 MarginSize double 
#ZOMPROPERTIES_04 0.00390625 Resolution int 256 MapResolution int 2048 Scaling table {TexelDensity double 1024 Mode in
#ZOMPROPERTIES_04 t 0 } LayoutScalingMode int 2 MaxMutations int 1 } } IsTile bool false PolyIDs ints { } } Maps table
#ZOMPROPERTIES_04  {Pin table {PrimType string "Vertex" Size int 1 DefaultValue double 0 ScaleType string "Normalized"
#ZOMPROPERTIES_04  MergeMode string "Max" MinValue double 0 MaxValue double 1 Data doubles { r 204 0 } } Density table
#ZOMPROPERTIES_04  {PrimType string "Polygon" Size int 1 DefaultValue double 1 ScaleType string "Log" MergeMode string
#ZOMPROPERTIES_04  "Average" MinValue double 0.1 MaxValue double 4 Data doubles { r 117 1 } } Protect table {PrimType 
#ZOMPROPERTIES_04 string "Vertex" Size int 1 DefaultValue double 0 ScaleType string "Normalized" MergeMode string "Ave
#ZOMPROPERTIES_04 rage" MinValue double -1 MaxValue double 1 Data doubles { r 204 0 } } } } }
#ZOMPROPERTIES_04}


#ZOMSCENE_01{
#ZOMSCENE_01 CScene {Settings table {AxisSystem table {UpVector string "y" } Unit string "cm" TexelDensityDisplay
#ZOMSCENE_01 Unit string "tx/cm" } Root table {} }
#ZOMSCENE_01}

#begin 0 fatal error vertex (that RizomUV cannot handle)
#end 0 fatal error vertex (that RizomUV cannot handle)

#begin 0 error vertex
#end 0 error vertex
